<?xml version="1.0" encoding="UTF-8" standalone="no"?>
<!-- Created with Inkscape (http://www.inkscape.org/) -->

<svg
   version="1.1"
   id="svg2"
   width="292.90668"
   height="281.82666"
   viewBox="0 0 292.90668 281.82666"
   sodipodi:docname="ATIC .eps"
   xmlns:inkscape="http://www.inkscape.org/namespaces/inkscape"
   xmlns:sodipodi="http://sodipodi.sourceforge.net/DTD/sodipodi-0.dtd"
   xmlns="http://www.w3.org/2000/svg"
   xmlns:svg="http://www.w3.org/2000/svg">
  <defs
     id="defs6" />
  <sodipodi:namedview
     id="namedview4"
     pagecolor="#ffffff"
     bordercolor="#000000"
     borderopacity="0.25"
     inkscape:showpageshadow="2"
     inkscape:pageopacity="0.0"
     inkscape:pagecheckerboard="0"
     inkscape:deskcolor="#d1d1d1" />
  <g
     id="g8"
     inkscape:groupmode="layer"
     inkscape:label="ink_ext_XXXXXX"
     transform="matrix(1.3333333,0,0,-1.3333333,0,281.82667)">
    <g
       id="g10"
       transform="scale(0.1)">
      <path
         d="m 190.48,229.449 h 218.704 l -96.364,285.02 c -1.492,4.48 -2.91,8 -4.257,10.531 -1.336,2.539 -3.208,3.801 -5.598,3.801 h -6.27 c -2.394,0 -4.257,-1.262 -5.597,-3.801 -1.356,-2.531 -2.774,-6.051 -4.258,-10.531 z M 442.789,129.059 H 156.422 L 134.465,63.6289 C 129.383,48.3906 124.004,36.5195 118.328,28.0195 112.652,19.4883 106.301,13.1289 99.2773,8.96875 92.2656,4.78906 84.4883,2.23828 75.9805,1.33984 67.4688,0.441406 57.6836,0 46.6289,0 38.2617,0 30.4922,1.42188 23.3242,4.25 16.1523,7.10156 10.5547,11.8789 6.51172,18.6016 2.48047,25.3203 0.304688,34.2109 0.0234375,45.2617 -0.28125,56.3203 2.41016,69.9219 8.08594,86.0508 L 173.004,556.602 c 7.172,20.91 15.387,36.886 24.652,47.949 9.254,11.051 19.043,19.039 29.344,23.969 10.313,4.929 21,7.781 32.055,8.531 11.047,0.73 22.097,1.109 33.156,1.109 h 15.234 c 11.051,0 22.11,-0.379 33.168,-1.109 11.047,-0.75 21.735,-3.602 32.047,-8.531 10.301,-4.93 20.078,-12.918 29.352,-23.969 9.254,-11.063 17.472,-27.039 24.644,-47.949 L 591.574,86.0508 c 5.668,-16.1289 8.36,-29.7305 8.071,-40.7891 C 599.34,34.2109 597.18,25.3203 593.148,18.6016 589.105,11.8789 583.508,7.10156 576.34,4.25 569.168,1.42188 561.391,0 553.039,0 c -11.062,0 -20.918,0.441406 -29.586,1.33984 -8.668,0.89844 -16.512,3.44922 -23.527,7.62891 -7.02,4.16015 -13.371,10.51955 -19.047,19.05075 -5.676,8.5 -10.906,20.3711 -15.688,35.6094 l -22.402,65.4301"
         style="fill:#100f0d;fill-opacity:1;fill-rule:nonzero;stroke:none"
         id="path12" />
      <path
         d="m 1132.94,632.789 c 9.57,0 17.04,-0.91 22.41,-2.711 5.38,-1.769 9.34,-4.769 11.87,-8.937 2.54,-4.192 4.04,-9.801 4.49,-16.821 0.45,-7.019 0.67,-15.75 0.67,-26.199 0,-13.449 -1.95,-23.84 -5.82,-31.16 -3.89,-7.32 -8.52,-12.621 -13.9,-15.902 -5.38,-3.297 -10.75,-5.239 -16.13,-5.829 -5.38,-0.601 -9.57,-0.902 -12.55,-0.902 H 963.547 V 32.2695 c 0,-7.1797 -1.871,-12.9179 -5.606,-17.25 C 954.199,10.6914 949.43,7.37891 943.605,5.14844 937.773,2.91016 931.055,1.5 923.438,0.898438 915.82,0.300781 908.266,0.0117188 900.805,0.0117188 c -8.676,0 -16.809,0.3671872 -24.426,1.0976612 -7.617,0.75 -14.344,2.26171 -20.168,4.5 -5.824,2.24218 -10.461,5.51952 -13.891,9.83982 -3.433,4.3321 -5.148,9.9297 -5.148,16.8203 V 524.328 H 682.109 c -3,0 -7.031,0.531 -12.101,1.57 -5.082,1.043 -10.086,3.43 -15.02,7.18 -4.929,3.731 -9.261,9.102 -12.996,16.121 -3.738,7.031 -5.597,16.66 -5.597,28.922 0,11.649 0.378,21.059 1.121,28.231 0.738,7.16 2.464,12.679 5.152,16.57 2.691,3.879 6.418,6.5 11.211,7.848 4.766,1.339 11.195,2.019 19.266,2.019 h 459.795"
         style="fill:#100f0d;fill-opacity:1;fill-rule:nonzero;stroke:none"
         id="path14" />
      <path
         d="m 1478.45,32.2695 c 0,-7.1797 -1.86,-12.9297 -5.6,-17.25 -3.73,-4.3281 -8.51,-7.64059 -14.34,-9.87106 -5.83,-2.23828 -12.55,-3.64844 -20.17,-4.250002 -7.63,-0.597657 -15.17,-0.8867192 -22.63,-0.8867192 -8.67,0 -16.8,0.3671872 -24.43,1.1093712 -7.61,0.73829 -14.33,2.25 -20.16,4.48829 -5.82,2.23046 -10.46,5.51172 -13.89,9.85152 -3.44,4.3204 -5.16,9.918 -5.16,16.8086 V 598.719 c 0,6.582 1.64,12.402 4.93,17.492 3.29,5.07 7.84,9.18 13.67,12.309 5.83,3.14 12.62,5.531 20.4,7.171 7.76,1.649 15.97,2.469 24.64,2.469 8.67,0 16.81,-0.531 24.42,-1.57 7.62,-1.039 14.27,-3.07 19.94,-6.039 5.68,-3 10.17,-7.031 13.45,-12.11 3.28,-5.07 4.93,-11.66 4.93,-19.722 V 32.2695"
         style="fill:#100f0d;fill-opacity:1;fill-rule:nonzero;stroke:none"
         id="path16" />
      <path
         d="m 2078.73,631.441 c 24.95,-4.492 46.16,-10.91 63.65,-19.269 17.46,-8.371 30.9,-18.453 40.31,-30.262 9.42,-11.801 14.13,-25.012 14.13,-39.648 0,-5.391 -0.89,-11.051 -2.7,-17.032 -1.79,-5.98 -4.55,-11.429 -8.27,-16.359 -3.74,-4.93 -8.67,-8.973 -14.8,-12.101 -6.12,-3.141 -13.38,-4.711 -21.73,-4.711 -7.48,0 -14.12,0.91 -19.94,2.691 -5.83,1.801 -11.81,4.039 -17.94,6.719 -6.12,2.691 -12.77,5.679 -19.94,8.961 -7.16,3.289 -15.61,6.289 -25.32,8.968 -9.7,2.692 -21.13,4.93 -34.28,6.731 -13.14,1.793 -28.68,2.68 -46.61,2.68 h -6.27 c -33.17,0 -59.83,-3.739 -79.98,-11.2 -20.17,-7.461 -35.64,-19.121 -46.41,-34.949 -10.74,-15.84 -17.91,-36.16 -21.5,-60.949 -3.58,-24.801 -5.37,-54.531 -5.37,-89.18 v -27.793 c 0,-34.648 1.79,-64.379 5.37,-89.179 3.59,-24.797 10.76,-45.039 21.5,-60.727 10.77,-15.684 26.24,-27.191 46.41,-34.504 20.15,-7.328 46.81,-10.976 79.98,-10.976 h 6.27 c 17.93,0 33.47,0.886 46.61,2.679 13.15,1.797 24.58,4.039 34.28,6.739 9.71,2.679 18.16,5.66 25.32,8.949 7.17,3.293 13.82,6.269 19.94,8.98 6.13,2.66 12.11,4.91 17.94,6.699 5.82,1.813 12.46,2.704 19.94,2.704 8.35,0 15.61,-1.653 21.73,-4.93 6.13,-3.301 11.06,-7.402 14.8,-12.332 3.72,-4.93 6.48,-10.309 8.27,-16.141 1.81,-5.808 2.7,-11.418 2.7,-16.8006 0,-14.6289 -4.71,-27.8671 -14.13,-39.6601 -9.41,-11.7969 -22.85,-21.8867 -40.31,-30.25 -17.49,-8.3594 -38.7,-14.7891 -63.65,-19.26955 -24.96,-4.48047 -52.81,-6.7070312 -83.58,-6.7070312 h -15.23 c -42.73,0 -79.32,3.7968712 -109.8,11.4101812 -30.48,7.6172 -56.09,18.3867 -76.86,32.2695 -20.77,13.8867 -37.35,30.5469 -49.74,49.9805 -12.4,19.4061 -21.88,40.9181 -28.45,64.5271 -6.58,23.602 -10.84,48.762 -12.78,75.512 -1.95,26.73 -2.92,54.59 -2.92,83.578 v 2.68 c 0,28.691 0.97,56.531 2.92,83.582 1.94,27.039 6.2,52.359 12.78,75.969 6.57,23.589 16.05,45.101 28.45,64.519 12.39,19.422 28.97,36.09 49.74,49.981 20.77,13.89 46.38,24.718 76.86,32.492 30.48,7.758 67.07,11.648 109.8,11.648 h 15.23 c 30.77,0 58.62,-2.238 83.58,-6.719"
         style="fill:#100f0d;fill-opacity:1;fill-rule:nonzero;stroke:none"
         id="path18" />
      <path
         d="m 1552.15,826.32 -8.05,8.149 c -8.08,8.172 -26.56,31.59 -98.25,141.082 l 9.25,42.479 232.92,420.86 399.91,-612.57 h -535.78"
         style="fill:#100f0d;fill-opacity:1;fill-rule:nonzero;stroke:none"
         id="path20" />
      <path
         d="m 1179.03,857.102 -862.967,375.248 541.07,881.35 h 451.697 l 345.21,-570.43 144.36,55.34 -600.64,-748.801 -18.73,7.293"
         style="fill:#100f0d;fill-opacity:1;fill-rule:nonzero;stroke:none"
         id="path22" />
      <path
         d="m 1549.89,881.199 h 475.62 l -337.5,557.691 -232.92,-420.85 c 47.37,-72.368 83.52,-125.438 94.8,-136.841"
         style="fill:#5db7e9;fill-opacity:1;fill-rule:nonzero;stroke:none"
         id="path24" />
      <path
         d="m 1058.97,1609.27 c 3.72,1.23 6.18,1.92 7.42,1.92 2.46,0 5.62,-0.69 9.33,-1.92 8.64,-2.47 13.58,-8.1 14.82,-16.61 0,0 57.76,-92.72 132.48,-211.31 L 828.992,1230.94 Z m 117.28,-699.559 0.55,0.609 572.92,640.07 44.79,50.05 -21.7,-8.32 -63.12,-24.2 -80.98,-31.04 -349.08,576.82 H 858.773 L 342.27,1272.36 1176.25,909.711"
         style="fill:#ed1997;fill-opacity:1;fill-rule:nonzero;stroke:none"
         id="path26" />
      <path
         d="m 907.789,1257.71 287.881,109.9 c -57.17,90.88 -101.46,161.86 -112.21,179.09 L 907.789,1257.71"
         style="fill:#fad823;fill-opacity:1;fill-rule:nonzero;stroke:none"
         id="path28" />
    </g>
  </g>
</svg>
